<?xml version="1.0" standalone="no"?>
<!DOCTYPE svg PUBLIC "-//W3C//DTD SVG 20010904//EN"
 "http://www.w3.org/TR/2001/REC-SVG-20010904/DTD/svg10.dtd">
<svg version="1.0" xmlns="http://www.w3.org/2000/svg"
 width="626.000000pt" height="626.000000pt" viewBox="0 0 626.000000 626.000000"
 preserveAspectRatio="xMidYMid meet">

<g transform="translate(0.000000,626.000000) scale(0.100000,-0.100000)"
fill="#000000" stroke="none">
<path d="M2896 5299 c-221 -30 -416 -88 -605 -179 -517 -250 -898 -709 -1042
-1255 -83 -314 -86 -668 -8 -976 112 -449 402 -871 769 -1121 41 -28 78 -54
83 -58 4 -3 -6 -39 -23 -79 -75 -182 -135 -417 -126 -493 7 -65 40 -135 84
-181 40 -42 119 -87 151 -87 11 0 23 -5 26 -10 4 -7 -191 -10 -577 -11 -321 0
-601 -4 -623 -8 l-40 -8 60 -8 c81 -12 4132 -13 4210 -1 l60 9 -40 9 c-22 5
-298 12 -613 15 l-574 5 58 24 c102 41 175 136 190 247 11 75 -49 311 -126
496 -16 41 -29 75 -28 75 14 5 148 102 203 147 100 82 262 250 334 349 183
247 298 517 358 835 20 110 28 417 14 541 -53 453 -243 847 -561 1164 -275
276 -606 453 -1000 535 -106 22 -157 27 -335 30 -115 2 -241 0 -279 -6z m519
-788 c50 -10 122 -31 160 -46 89 -35 217 -110 252 -148 27 -28 26 -28 -22 6
-176 123 -423 185 -700 174 -189 -7 -313 -34 -457 -100 -54 -23 -68 -35 -68
-52 0 -41 -102 -115 -158 -115 -45 0 -198 -204 -268 -356 -121 -266 -192 -615
-182 -894 4 -98 3 -123 -4 -90 -16 75 -12 344 6 465 23 150 78 357 130 485
168 418 429 631 847 690 99 14 360 3 464 -19z m-1520 -221 c0 -13 -27 -15
-185 -15 -169 0 -185 2 -188 18 -3 16 9 17 185 15 159 -3 188 -5 188 -18z
m450 0 c-17 -19 -29 -20 -144 -18 -111 3 -126 5 -129 21 -3 16 9 17 144 17
l147 0 -18 -20z m2393 3 c-3 -17 -31 -18 -404 -21 -390 -2 -401 -2 -419 18
l-18 20 422 0 c397 0 422 -1 419 -17z m-2118 -223 c-15 -79 -12 -270 6 -358
27 -135 80 -258 161 -374 36 -52 29 -61 -19 -26 -36 25 -137 226 -163 323 -33
125 -31 328 6 458 15 55 21 40 9 -23z m-935 -5 c0 -18 -8 -20 -78 -23 -64 -2
-78 0 -84 14 -10 25 16 34 92 32 62 -3 70 -5 70 -23z m488 19 c3 -3 1 -15 -6
-25 -11 -17 -25 -19 -149 -19 -137 0 -156 5 -144 35 4 12 33 15 149 15 79 0
146 -3 150 -6z m2202 -19 c0 -19 -8 -20 -129 -23 -109 -2 -132 0 -147 14 -11
10 -19 21 -19 26 0 5 66 7 148 6 139 -3 147 -4 147 -23z m354 16 c8 -5 11 -16
8 -25 -5 -13 -24 -16 -102 -16 -78 0 -97 3 -102 16 -9 25 16 34 102 34 44 0
86 -4 94 -9z m-2669 -230 c0 -41 -1 -41 -270 -41 -260 0 -279 3 -266 35 4 13
48 15 271 15 154 0 265 -4 265 -9z m2265 -16 c0 -17 -8 -20 -54 -23 -54 -3
-70 5 -71 36 0 10 16 12 63 10 54 -3 62 -5 62 -23z m410 0 c0 -19 -8 -20 -133
-23 -115 -2 -133 0 -139 14 -10 28 18 34 147 32 117 -3 125 -4 125 -23z
m-3002 -219 c3 -8 3 -17 0 -20 -4 -3 -53 -6 -110 -6 -79 0 -103 3 -103 13 0
24 12 27 111 27 74 0 98 -3 102 -14z m255 -3 c-2 -14 -15 -19 -57 -21 -64 -4
-83 2 -75 23 5 11 22 15 71 15 56 0 64 -2 61 -17z m2750 -6 c3 -16 -11 -17
-230 -15 -213 3 -233 4 -236 21 -3 16 11 17 230 15 213 -3 233 -4 236 -21z
m-2148 -48 c0 -25 111 -239 137 -264 52 -50 134 -69 197 -45 19 7 36 4 72 -12
41 -17 58 -19 123 -13 96 9 119 9 266 -2 111 -8 116 -9 65 -15 -30 -4 -83 -21
-117 -38 -62 -31 -63 -31 -115 -15 -61 18 -113 19 -172 4 -39 -10 -48 -8 -102
19 -95 48 -129 55 -218 49 -72 -5 -176 -35 -318 -92 -13 -5 -18 -18 -18 -44 0
-31 5 -38 32 -51 18 -9 35 -26 39 -40 4 -14 12 -44 18 -68 28 -99 123 -162
261 -170 74 -4 93 -1 138 18 96 41 152 136 152 256 0 60 7 64 100 63 90 -1 92
-4 107 -103 30 -210 155 -294 358 -241 114 30 175 92 196 197 11 53 16 62 45
76 28 13 34 21 34 48 0 17 -6 36 -13 42 -21 18 -250 92 -284 92 -17 0 -35 5
-38 10 -6 10 2 11 97 14 28 1 54 8 64 17 13 13 23 14 60 6 32 -8 58 -7 87 0
23 7 44 10 46 7 2 -2 6 -61 9 -132 4 -108 1 -139 -17 -204 -56 -206 -162 -339
-333 -422 -159 -76 -226 -91 -418 -91 -194 0 -263 15 -420 92 -120 59 -221
155 -268 254 -71 149 -77 179 -76 361 l1 167 44 68 c57 88 156 213 169 213 6
0 10 -5 10 -11z m-650 -179 c0 -19 -7 -20 -204 -20 -126 0 -207 4 -211 10 -16
26 14 30 211 30 197 0 204 -1 204 -20z m2415 0 c0 -8 -8 -16 -17 -18 -13 -2
-18 3 -18 18 0 15 5 20 18 18 9 -2 17 -10 17 -18z m380 0 c0 -12 -23 -15 -134
-18 -130 -3 -161 3 -146 27 4 8 51 11 143 9 114 -3 137 -6 137 -18z m-1832
-238 l67 -31 0 -74 c0 -60 -5 -83 -27 -128 -37 -72 -83 -99 -173 -99 -166 0
-250 74 -250 220 0 39 5 74 13 84 7 10 45 29 83 42 97 35 194 30 287 -14z
m-1218 8 c0 -12 -16 -16 -74 -18 -73 -3 -100 6 -86 28 4 7 34 10 83 8 61 -2
77 -6 77 -18z m235 0 c0 -17 -7 -20 -50 -20 -35 0 -50 4 -50 13 0 22 11 27 57
27 36 0 43 -3 43 -20z m2815 0 c0 -13 -30 -15 -197 -18 -194 -2 -198 -2 -198
18 0 20 4 20 198 18 167 -3 197 -5 197 -18z m-1081 -10 c39 -12 70 -28 76 -40
5 -10 10 -50 10 -88 0 -134 -72 -207 -218 -219 -147 -12 -232 73 -232 233 0
61 1 63 36 84 85 53 214 65 328 30z m-1856 -217 c-3 -16 -19 -18 -132 -21 -72
-1 -134 2 -139 7 -24 24 9 31 139 31 124 0 135 -2 132 -17z m130 -5 c3 -13 -3
-18 -22 -18 -27 0 -41 14 -31 31 10 16 49 6 53 -13z m2622 2 c0 -19 -7 -20
-110 -20 -60 0 -110 2 -110 4 0 31 15 36 116 36 97 0 104 -1 104 -20z m185 0
c0 -11 -12 -15 -50 -15 -40 0 -50 4 -53 18 -3 16 3 18 50 15 39 -2 53 -7 53
-18z m-3030 -230 c0 -12 -17 -15 -90 -15 -78 0 -90 2 -93 18 -3 16 5 18 90 15
75 -2 93 -6 93 -18z m263 -2 c3 -15 -4 -18 -42 -18 -25 0 -48 5 -51 10 -12 20
7 31 48 28 30 -2 43 -8 45 -20z m2770 5 c-3 -16 -23 -18 -226 -21 -181 -2
-222 0 -222 11 0 8 3 17 7 20 3 4 105 7 225 7 204 0 219 -1 216 -17z m-2688
-222 c5 -11 10 -22 10 -25 0 -3 -119 -6 -265 -6 -234 0 -266 2 -272 16 -3 9 0
20 8 25 8 5 125 9 261 9 234 0 248 -1 258 -19z m535 6 c25 -19 10 -37 -31 -37
-30 0 -34 3 -34 25 0 19 5 25 23 25 13 0 31 -6 42 -13z m77 -5 c6 -22 75 -57
185 -91 l82 -26 -20 -44 c-19 -42 -19 -47 -3 -100 9 -32 37 -85 65 -123 l49
-68 -104 0 c-91 0 -112 3 -174 29 -94 38 -148 71 -204 125 -47 44 -65 85 -32
72 39 -15 124 -18 139 -6 14 12 9 20 -40 70 l-56 56 26 14 c26 14 50 5 26 -9
-10 -6 -10 -13 -3 -27 22 -39 109 -112 165 -137 57 -26 81 -23 31 4 -38 20
-112 105 -141 162 -18 37 -23 58 -18 83 6 37 20 45 27 16z m1078 -7 c0 -22 -4
-25 -34 -25 -41 0 -57 26 -23 40 40 16 57 12 57 -15z m630 10 c6 -8 9 -19 5
-25 -6 -10 -175 -15 -175 -4 0 3 5 14 10 25 9 16 22 19 79 19 48 0 72 -4 81
-15z m359 6 c8 -5 11 -16 8 -25 -5 -13 -26 -16 -131 -16 -125 0 -144 5 -132
35 4 12 29 15 123 15 65 0 124 -4 132 -9z m-1138 -70 l24 -20 -24 -45 c-14
-24 -29 -42 -34 -39 -6 3 -7 1 -4 -5 7 -10 -87 -102 -104 -102 -5 0 -9 -5 -9
-11 0 -19 78 33 132 87 29 30 56 54 61 54 15 0 6 -35 -15 -58 -13 -14 -18 -26
-13 -29 36 -13 39 -21 20 -49 -28 -43 -51 -59 -168 -119 -92 -47 -116 -55
-163 -55 l-55 0 40 53 c79 106 98 169 72 236 l-18 44 106 38 c58 20 111 38
117 38 7 1 22 -8 35 -18z m-290 -96 c10 -27 19 -58 19 -68 0 -29 -50 -119 -97
-174 -43 -51 -47 -53 -93 -53 -48 0 -50 1 -101 63 -54 64 -88 128 -90 169 -1
12 8 43 19 68 l21 45 151 0 152 0 19 -50z m-825 -159 c-5 -20 3 -30 47 -63 28
-22 66 -47 82 -56 29 -16 24 -16 -117 -17 -82 0 -148 3 -148 8 0 13 120 152
131 152 7 0 9 -10 5 -24z m1362 -28 c15 -17 40 -49 55 -70 l29 -38 -149 0
c-142 1 -147 1 -118 17 44 24 145 103 145 114 0 16 11 10 38 -23z m240 -164
c31 -21 30 -49 -22 -448 -25 -188 -50 -385 -57 -438 l-12 -98 -856 -2 c-471
-2 -857 -3 -858 -3 -2 1 -123 925 -123 943 0 7 11 24 25 37 l24 25 928 0 c824
0 931 -2 951 -16z m-1932 -366 c3 -35 11 -106 18 -157 12 -92 12 -93 -10 -101
-25 -10 -94 -68 -94 -80 0 -4 21 3 48 16 79 39 72 49 97 -142 21 -169 24 -158
-32 -150 -25 3 -62 15 -81 26 -19 12 -37 19 -39 16 -3 -2 12 -23 32 -45 21
-23 33 -41 27 -41 -16 0 -92 88 -107 123 -26 63 -27 110 -5 207 30 138 124
410 136 397 2 -2 7 -33 10 -69z m2029 -52 c20 -55 50 -154 67 -221 l31 -121
-25 -55 c-14 -30 -42 -70 -62 -90 -39 -37 -131 -87 -142 -76 -5 5 20 240 32
295 6 28 15 28 75 -3 l50 -25 -6 38 c-9 50 -53 224 -65 257 -13 33 -13 123 -1
110 5 -6 25 -55 46 -109z m-185 -631 c6 -8 10 -22 8 -32 -3 -17 -44 -18 -868
-18 -826 0 -865 1 -868 18 -10 49 -53 47 861 47 735 0 856 -2 867 -15z"/>
<path d="M3010 2710 c0 -53 50 -90 120 -90 68 0 120 37 120 86 0 14 -6 12 -31
-12 -27 -25 -38 -29 -90 -29 -56 0 -63 3 -90 33 -26 28 -29 30 -29 12z"/>
<path d="M2702 3120 c3 -14 9 -33 13 -42 9 -23 -21 -36 -46 -19 -25 15 -24 -1
0 -23 13 -12 19 -31 19 -61 0 -44 19 -92 45 -114 9 -6 30 -14 49 -17 27 -5 41
-1 66 21 91 76 51 235 -59 235 -30 0 -50 7 -67 23 l-25 22 5 -25z m149 -156
c7 -20 6 -32 -6 -50 -27 -42 -75 -25 -75 26 0 53 62 72 81 24z"/>
<path d="M3538 3120 c-13 -15 -30 -20 -64 -20 -37 0 -51 -5 -74 -28 -55 -55
-49 -156 12 -207 26 -22 39 -26 67 -21 58 9 106 84 94 148 -3 15 3 30 16 42
12 11 21 24 21 30 0 6 -5 5 -12 -2 -14 -14 -45 -16 -53 -2 -3 5 -1 19 5 30 6
12 10 28 8 36 -2 12 -7 11 -20 -6z m-60 -142 c7 -7 12 -24 12 -38 0 -51 -48
-68 -75 -26 -32 48 23 104 63 64z"/>
<path d="M3101 1444 c0 -11 3 -14 6 -6 3 7 2 16 -1 19 -3 4 -6 -2 -5 -13z"/>
</g>
</svg>
